<svg xmlns="http://www.w3.org/2000/svg" viewBox="0 0 438.54 438.54"><circle cx="219.26" cy="219.26" r="176.73" fill="#fff"/><path d="M409.13 109.2a218.36 218.36 0 0 0-79.8-79.8Q278.94 0 219.27 0T109.21 29.41a218.29 218.29 0 0 0-79.8 79.8Q0 159.6 0 219.27T29.41 329.33a218.36 218.36 0 0 0 79.8 79.8q50.4 29.41 110.06 29.41t110.07-29.41a218.36 218.36 0 0 0 79.8-79.8q29.4-50.4 29.4-110.06T409.13 109.2Zm-47.68 76.66-155 155a17.88 17.88 0 0 1-13.13 5.43 17.56 17.56 0 0 1-12.85-5.43L77.08 237.54a17.45 17.45 0 0 1-5.14-12.85 17.79 17.79 0 0 1 5.14-13.14l26-25.69a17.94 17.94 0 0 1 25.7 0l64.53 64.52 116.49-116.2a17.92 17.92 0 0 1 25.7 0l26 25.7A17.75 17.75 0 0 1 366.6 173 17.46 17.46 0 0 1 361.45 185.86Z"/></svg>