<svg xmlns="http://www.w3.org/2000/svg" viewBox="0 0 438.54 438.54"><circle cx="219.26" cy="219.26" r="172.74" style="fill:#fff;stroke-miterlimit:10;stroke:#000"/><path d="M409.13 109.2a218.36 218.36 0 0 0-79.8-79.8Q278.94 0 219.27 0T109.21 29.41a218.29 218.29 0 0 0-79.8 79.8Q0 159.6 0 219.27T29.41 329.33a218.36 218.36 0 0 0 79.8 79.8q50.4 29.41 110.06 29.41t110.07-29.41a218.36 218.36 0 0 0 79.8-79.8q29.4-50.4 29.4-110.06T409.13 109.2ZM322.62 270.94A17.56 17.56 0 0 1 328 283.79a17.89 17.89 0 0 1-5.43 13.13l-25.69 25.7A17.89 17.89 0 0 1 283.8 328a17.57 17.57 0 0 1-12.85-5.42l-51.68-51.68-51.68 51.68A17.59 17.59 0 0 1 154.74 328a17.89 17.89 0 0 1-13.13-5.42l-25.7-25.7a17.85 17.85 0 0 1-5.42-13.13 17.57 17.57 0 0 1 5.42-12.85l51.68-51.67-51.68-51.68a17.53 17.53 0 0 1-5.42-12.85 17.89 17.89 0 0 1 5.42-13.13l25.7-25.69a17.87 17.87 0 0 1 13.13-5.42 17.59 17.59 0 0 1 12.85 5.42l51.68 51.67L271 115.92a17.53 17.53 0 0 1 12.85-5.42 17.93 17.93 0 0 1 13.14 5.42l25.69 25.69a17.88 17.88 0 0 1 5.43 13.13 17.54 17.54 0 0 1-5.43 12.85L271 219.27Z"/></svg>